<?xml version="1.0" encoding="utf-8"?>
<!-- Generator: Adobe Illustrator 17.0.0, SVG Export Plug-In . SVG Version: 6.00 Build 0)  -->
<!DOCTYPE svg PUBLIC "-//W3C//DTD SVG 1.1//EN" "http://www.w3.org/Graphics/SVG/1.1/DTD/svg11.dtd">
<svg version="1.1" id="Layer_1" xmlns="http://www.w3.org/2000/svg" xmlns:xlink="http://www.w3.org/1999/xlink" x="0px" y="0px"
	 width="200px" height="200px" viewBox="0 0 200 200" enable-background="new 0 0 200 200" xml:space="preserve">
<path fill="#F0F0F0" d="M185.931,1.705H59.637c-7.034,0-12.736,5.702-12.736,12.736v126.294c0,7.034,5.702,12.736,12.736,12.736
	h126.294c7.034,0,12.736-5.702,12.736-12.736V14.441C198.667,7.407,192.965,1.705,185.931,1.705z M184.126,128.742
	c0,5.627-4.561,10.188-10.188,10.188H72.539c-5.627,0-10.188-4.561-10.188-10.188V27.342c0-5.627,4.561-10.188,10.188-10.188
	h101.399c5.627,0,10.188,4.561,10.188,10.188V128.742z"/>
<path fill="#F0F0F0" d="M153.228,58.97c0-7.034-5.702-12.736-12.736-12.736H14.198c-7.034,0-12.736,5.702-12.736,12.736v126.294
	c0,7.034,5.702,12.736,12.736,12.736h126.294c7.034,0,12.736-5.702,12.736-12.736L153.228,58.97L153.228,58.97z M138.688,173.271
	c0,5.627-4.561,10.188-10.188,10.188H27.1c-5.627,0-10.188-4.561-10.188-10.188V71.872c0-5.627,4.561-10.188,10.188-10.188h101.399
	c5.627,0,10.188,4.561,10.188,10.188V173.271z"/>
</svg>
