<?xml version="1.0" encoding="utf-8"?>
<!-- Generator: Adobe Illustrator 17.0.0, SVG Export Plug-In . SVG Version: 6.00 Build 0)  -->
<!DOCTYPE svg PUBLIC "-//W3C//DTD SVG 1.1//EN" "http://www.w3.org/Graphics/SVG/1.1/DTD/svg11.dtd">
<svg version="1.1" id="Layer_1" xmlns="http://www.w3.org/2000/svg" xmlns:xlink="http://www.w3.org/1999/xlink" x="0px" y="0px"
	 width="1920px" height="199.406px" viewBox="0 0 1920 199.406" enable-background="new 0 0 1920 199.406" xml:space="preserve">
<title>waves</title>
<g>
	<defs>
		<rect id="SVGID_1_" width="1920" height="199.886"/>
	</defs>
	<clipPath id="SVGID_2_">
		<use xlink:href="#SVGID_1_"  overflow="visible"/>
	</clipPath>
	<path opacity="0.35" clip-path="url(#SVGID_2_)" fill="#FCFCFC" enable-background="new    " d="M808.438,199.406
		c-4.649-3.172-9.297-6.289-13.891-9.406C684.568,116.717,552.222,78.927,420.97,83.193
		c-124.416,4.102-244.184,46.923-347.435,116.158h734.903V199.406L808.438,199.406z"/>
	<path opacity="0.35" clip-path="url(#SVGID_2_)" fill="#FFFFFF" enable-background="new    " d="M2149.031,163.19
		c-71.924-53.266-156.458-110.033-253.051-96.47c-68.19,9.57-113.058,62.345-173.046,88.048
		c-77.923,33.36-139.012-9.242-208.733-37.899c-94.083-38.61-210.324-28.11-294.246,26.579
		c-25.954,16.953-50.806,38.282-76.638,56.438h1005.713V163.19L2149.031,163.19z"/>
	<path opacity="0.35" clip-path="url(#SVGID_2_)" fill="#FFFFFF" enable-background="new    " d="M2149.031,109.175
		c-13.222-1.296-26.321-1.488-38.135-0.768c-44.684,2.64-87.044,16.03-128.239,29.901s-82.575,28.509-126.831,34.029
		c-147.643,18.382-269.762-64.122-406.141-90.711c-123.587-24.094-254.519-3.264-374.495,30.045
		c-122.118,33.885-248.214,81.448-375.168,61.194c-89.37-14.254-164.17-60.426-246.746-90.759C306.917,28.255,151.5,29.455,0,55.516
		v143.89h2149.031V109.175z"/>
	<path clip-path="url(#SVGID_2_)" fill="#FFFFFF" d="M2149.031,143.408c-12.487-4.287-25.464-8.115-38.074-11.291
		c-50.622-12.746-115.874-18.411-173.658-11.253c-89.064,11.1-138.89,48.342-223.791,63.424
		c-74.679,13.243-163.314,7.043-240.074-4.325c-149.296-22.124-291.615-47.883-456.886-42.486
		c-90.594,2.947-178.127,14.851-257.948,31.386c-82.33,17.071-179.84,40.841-274.658,22.315
		c-80.677-15.808-122.669-50.562-197.347-69.663c-55.826-14.277-127.198-19.406-192.879-13.894
		C59.988,110.452,27.974,116.117,0,123.925v75.481h2149.031V143.408z"/>
</g>
</svg>
